<svg width="28" height="38" viewBox="0 0 28 38" fill="none" xmlns="http://www.w3.org/2000/svg">
<g id="green-pepper">
<path id="Shape" d="M15.7336 6.91837C15.8073 6.33245 15.916 5.75185 16.0709 5.18499C16.2476 4.53871 16.4749 3.83164 16.9424 3.32909C17.841 2.36297 18.6894 2.98985 19.2021 3.44749C19.4918 3.70628 19.7054 4.12279 20.0338 4.32895C20.4439 4.58619 20.9999 4.51106 21.3231 4.15302C22.0172 3.3843 21.0678 2.34838 20.5308 1.80006C19.7362 0.999316 18.6951 0.471009 17.5368 0.501232C14.4716 0.673814 13.0832 3.89861 12.4866 6.86041C12.9179 6.81963 13.3757 6.79885 13.8622 6.79885C14.54 6.79876 15.1622 6.83903 15.7336 6.91837Z" fill="#E0E0E0"/>
<path id="Shape_2" fill-rule="evenodd" clip-rule="evenodd" d="M27.6414 17.3116C27.9076 16.1008 28.066 15.0601 27.9734 13.9169C27.884 12.8135 27.3422 9.14504 24.1229 8.26091C23.6158 8.12159 23.0543 8.05103 22.4539 8.05103C21.0791 8.05103 20.0821 8.3684 19.0126 9.1465L18.6068 9.44184L18.2174 9.12533C17.3403 8.41254 15.9214 8.05103 14 8.05103C12.0786 8.05103 10.6598 8.41254 9.78267 9.12533L9.3933 9.44184L8.98738 9.1465C7.91793 8.36831 6.92099 8.05103 5.5461 8.05103C4.94572 8.05103 4.38431 8.12159 3.87722 8.26091C0.657787 9.14495 0.115959 12.8134 0.026564 13.9169C-0.0659495 15.0601 0.0923975 16.1008 0.35859 17.3116C0.888377 19.7212 1.21243 22.0868 1.32175 24.3431C1.35984 25.1296 1.33469 25.9329 1.31036 26.7099L1.31032 26.7113C1.26216 28.2465 1.21677 29.6966 1.6096 31.0616C2.15273 32.949 3.32292 34.6276 4.8202 35.6673C5.94327 36.447 7.3852 36.8943 8.77654 36.8943C9.27298 36.8943 9.75521 36.8378 10.2096 36.7265C10.5954 36.6319 10.9159 36.4832 11.2184 36.258L11.7406 35.8694L12.1295 36.3899C12.6644 37.1057 13.3287 37.5 13.9999 37.5C14.6712 37.5 15.3354 37.1057 15.8703 36.3899L16.2592 35.8694L16.7815 36.258C17.0839 36.4832 17.4044 36.632 17.79 36.7264C18.2444 36.8378 18.7268 36.8943 19.2232 36.8943C20.6145 36.8944 22.0564 36.4472 23.1795 35.6673C24.6768 34.6276 25.8471 32.949 26.3901 31.0616C26.783 29.6966 26.7376 28.2465 26.6894 26.7113L26.6894 26.71L26.6894 26.7099C26.6651 25.933 26.6399 25.1296 26.678 24.3431C26.7876 22.0871 27.1116 19.7212 27.6414 17.3116ZM8.87001 23.0913C8.69113 21.3918 8.64401 19.6326 8.77455 17.9278C8.87295 16.4492 9.00453 14.9434 9.38654 13.5059C9.40235 13.9125 9.41756 14.3193 9.43278 14.7264L9.43279 14.7267C9.53369 17.4257 9.63487 20.1323 9.91381 22.8176L9.9667 23.3293C10.1179 24.7956 10.2691 26.2622 10.5007 27.7187C10.6241 28.495 10.7645 29.2682 10.905 30.0414C11.0464 30.8201 11.1877 31.5986 11.3117 32.3801C9.89484 29.4596 9.19675 26.3029 8.87001 23.0913ZM16.6883 32.3801C18.1052 29.4596 18.8033 26.3028 19.1301 23.0912C19.3153 21.3327 19.3327 19.5375 19.2153 17.7738C19.1204 16.3471 18.982 14.8924 18.6135 13.5058C18.5923 14.0526 18.5729 14.6004 18.5535 15.1487C18.461 17.7664 18.368 20.3964 18.067 22.9937C17.9169 24.6239 17.7323 26.2544 17.4751 27.8716C17.3557 28.6214 17.2195 29.3683 17.0834 30.1151C16.9459 30.8692 16.8084 31.6232 16.6883 32.3801Z" fill="#E0E0E0"/>
</g>
</svg>
