<svg width="69" height="67" viewBox="0 0 69 67" fill="none" xmlns="http://www.w3.org/2000/svg">
<g id="pizza">
<path id="Shape" d="M49.0774 0L47 5.10727C55.3528 8.23529 61.6426 15.3356 63.3305 24L69 22.9758C66.9226 12.4429 59.2911 3.77855 49.0774 0Z" fill="#AEAEAE"/>
<path id="Shape_2" fill-rule="evenodd" clip-rule="evenodd" d="M38 29L46.485 8C53.965 10.8028 59.4925 17.2367 61 24.8166L38 29ZM45.8102 18.5345C45.8102 21.1578 48.0356 23.3116 50.7778 23.3116C53.4625 23.3116 55.7453 21.1578 55.7453 18.5345C55.7453 15.9112 53.52 13.7574 50.7778 13.7574C48.0499 13.7574 45.8102 15.9112 45.8102 18.5345Z" fill="#AEAEAE"/>
<path id="Shape_3" d="M62.5064 30.2201L58.3224 30.9713V30.9713C58.6475 32.6545 58.8171 34.3238 58.8171 36.007C58.8171 50.8358 46.5618 62.8407 31.5501 62.8407C16.5383 62.8407 4.22646 50.7801 4.22646 36.007C4.22646 21.2338 16.4959 9.17321 31.4935 9.17321C34.9001 9.17321 38.2502 9.77137 41.3882 11.0094L42.929 7.11443C39.3528 5.76509 35.5079 5 31.4935 5C14.1212 5.01391 0 18.869 0 36.007C0 53.1449 14.1212 67 31.4935 67C48.8658 67 62.987 53.1032 62.987 36.007C63.0577 34.0038 62.8315 32.112 62.5064 30.2201Z" fill="#AEAEAE"/>
<path id="Shape_4" fill-rule="evenodd" clip-rule="evenodd" d="M55.6072 31.9399L31.5369 36.5L40.3335 13.8694C40.3335 13.8694 36.8544 12 31.4804 12C18.0027 12 7 23.0179 7 36.5142C7 50.0104 18.0027 61 31.4662 61C44.9297 61 55.9466 49.9821 55.9466 36.4858C56.1729 35.0555 55.6072 31.9399 55.6072 31.9399ZM21.906 18.4295C22.7263 18.1038 23.5607 17.8772 24.3809 17.7639C25.1446 17.6506 25.8659 18.2029 25.979 18.9251C26.0921 19.6899 25.5406 20.4121 24.8193 20.5254C24.2112 20.6387 23.5607 20.7945 23.0091 21.0211C22.0757 21.4176 21.411 20.7945 21.1989 20.2564C20.8595 19.5341 21.1847 18.6986 21.906 18.4295ZM19.318 24.7032C18.823 24.3208 18.1724 24.0942 17.5077 24.1509C16.7299 24.2075 16.1218 24.8731 16.1784 25.6379C16.2349 26.4026 16.8996 27.0116 17.6633 26.9549C18.5967 27.5497 19.318 27.0682 19.5867 26.6858C20.0392 26.0202 19.9261 25.1422 19.318 24.7032ZM12.8832 40.1821C12.2751 39.7431 12.1195 38.865 12.6145 38.1994C13.0529 37.5905 13.9297 37.4347 14.5944 37.9303L16.2491 39.1483C16.8572 39.5873 17.0128 40.4653 16.5178 41.1309C16.2491 41.5133 15.4995 42.009 14.5944 41.4L12.8832 40.1821ZM15.3581 51.809C16.1218 52.5454 17.0693 52.078 17.338 51.809C17.8896 51.2566 17.8896 50.3645 17.338 49.8263L16.6733 49.1607C16.1218 48.6084 15.245 48.6084 14.6934 49.1607C14.1419 49.713 14.1419 50.591 14.6934 51.1434L15.3581 51.809ZM16.7865 33.2994C16.7865 30.991 18.6533 29.1075 20.9726 29.1075C23.292 29.1075 25.1587 30.9769 25.1587 33.2994C25.1587 35.622 23.292 37.4913 20.9726 37.4913C18.6533 37.4913 16.7865 35.6078 16.7865 33.2994ZM19.9827 46.8948C20.7605 47.702 21.6939 47.2205 21.9626 46.9514C22.5141 46.3991 22.5141 45.5211 21.9626 44.9121L20.916 43.8642C20.3645 43.3118 19.4877 43.3118 18.9361 43.8642C18.3846 44.4165 18.3846 45.2945 18.9361 45.8468L19.9827 46.8948ZM28.8923 56.8081C28.666 57.417 28.1003 57.9127 27.1387 57.6861L24.8335 56.9214C24.1122 56.6948 23.7304 55.8734 23.9566 55.1653C24.1829 54.4431 25.0032 54.0607 25.7103 54.2873L28.0155 55.052C28.7226 55.2786 29.1044 56.0434 28.8923 56.8081ZM28.7226 43.1561C29.6701 43.5951 30.3207 43.0428 30.5894 42.6038C30.9712 41.9382 30.7025 41.1168 30.0378 40.6777C29.5429 40.3945 29.1044 40.0121 28.7226 39.5731C28.2276 39.0208 27.3508 38.9642 26.7427 39.4598C26.1911 39.9555 26.1346 40.8335 26.6295 41.4425C27.2377 42.1647 27.9589 42.7171 28.7226 43.1561ZM30.5328 27.7905L30.5029 27.8106C30.2204 28.0017 29.4523 28.5212 28.5529 27.6205C27.9448 27.0116 27.5629 26.3035 27.1811 25.5246C26.8558 24.8023 27.1245 23.9809 27.8458 23.6552C28.567 23.3295 29.3873 23.5986 29.7126 24.3208C29.9813 24.8731 30.3207 25.3688 30.7025 25.8078C31.1975 26.4168 31.0844 27.2948 30.5328 27.7905ZM32.0885 15.6679C31.3106 15.7812 30.8157 16.5035 30.9288 17.2682C31.0278 18.0471 31.7491 18.5994 32.5269 18.4153C32.5269 18.4153 33.4886 19.5058 34.62 18.6419C35.2281 18.1462 35.2846 17.2682 34.7897 16.6592C34.125 15.8945 33.0784 15.498 32.0885 15.6679ZM35.8786 54.3864C33.5169 54.3864 31.5935 52.4604 31.5935 50.0954C31.5935 47.7303 33.5169 45.8043 35.8786 45.8043C38.2404 45.8043 40.1637 47.7303 40.1637 50.0954C40.1637 52.4604 38.2404 54.3864 35.8786 54.3864ZM40.4324 43.2694C40.7011 43.6517 41.182 44.0058 41.9174 43.8217C42.6386 43.5951 43.1336 42.887 42.9639 42.1789C42.7518 41.3009 41.974 40.6353 41.0406 40.5786C40.2769 40.522 39.6122 41.1309 39.5556 41.8957C39.5556 42.5046 39.8809 43.0428 40.4324 43.2694ZM50.3321 44.8697L49.6674 45.9176C49.0027 46.909 47.9562 46.5266 47.744 46.3566C47.0793 45.9743 46.8672 45.0962 47.3056 44.4306L47.9703 43.3827C48.3521 42.7171 49.229 42.5046 49.8937 42.9436C50.5583 43.326 50.7705 44.204 50.3321 44.8697ZM49.5118 38.1428C50.1624 38.1428 50.7139 37.7604 50.8836 37.0948C51.1099 36.3867 50.6149 35.6078 49.8371 35.4379C49.1724 35.2679 48.5219 35.2113 47.8572 35.2679C47.0935 35.3246 46.5419 35.9902 46.5985 36.7549C46.6551 37.5338 47.3198 38.0861 48.0834 37.9728C48.4653 37.9728 48.8047 37.9728 49.1865 38.0861C49.2855 38.1428 49.3987 38.1428 49.5118 38.1428Z" fill="#AEAEAE"/>
</g>
</svg>
